REM MD5 f5c0ef786631e5111234dc7f2a2e17a1
FILE "Official U.S. PlayStation Magazine Demo Disc 39 (USA).bin" BINARY
  TRACK 01 MODE2/2352
    INDEX 01 00:00:00
  TRACK 02 AUDIO
    INDEX 00 29:47:02
    INDEX 01 29:49:02
  TRACK 03 AUDIO
    INDEX 00 33:35:12
    INDEX 01 33:37:12
  TRACK 04 AUDIO
    INDEX 00 34:47:31
    INDEX 01 34:49:31
REM LEADOUT 34:55:27
